<svg xmlns="http://www.w3.org/2000/svg" width="30" height="30" viewBox="0 0 30 30">
  <g id="Group_344" data-name="Group 344" transform="translate(-4072 3037)">
    <g id="SymMaxWin" transform="translate(4072 -3037)">
      <g id="Path_289" data-name="Path 289" fill="#323132">
        <path d="M 25 29.5 L 5 29.5 C 2.51869010925293 29.5 0.5 27.48130989074707 0.5 25 L 0.5 5 C 0.5 2.51869010925293 2.51869010925293 0.5 5 0.5 L 25 0.5 C 27.48130989074707 0.5 29.5 2.51869010925293 29.5 5 L 29.5 25 C 29.5 27.48130989074707 27.48130989074707 29.5 25 29.5 Z" stroke="none"/>
        <path d="M 5 1 C 2.794389724731445 1 1 2.794389724731445 1 5 L 1 25 C 1 27.20561027526855 2.794389724731445 29 5 29 L 25 29 C 27.20561027526855 29 29 27.20561027526855 29 25 L 29 5 C 29 2.794389724731445 27.20561027526855 1 25 1 L 5 1 M 5 0 L 25 0 C 27.76141929626465 0 30 2.238580703735352 30 5 L 30 25 C 30 27.76141929626465 27.76141929626465 30 25 30 L 5 30 C 2.238580703735352 30 0 27.76141929626465 0 25 L 0 5 C 0 2.238580703735352 2.238580703735352 0 5 0 Z" stroke="none" fill="#8a8a8a"/>
      </g>
    </g>
    <g id="btn" transform="translate(4076.973 -3030.987)">
      <path id="icon_32_bar-chart_copy" data-name="icon/32/bar-chart copy" d="M15,19V4.75h5V19ZM7.5,19V0h5V19ZM0,19V11.281H5V19Z" transform="translate(0.027 -0.013)" fill="#fff"/>
    </g>
  </g>
</svg>
