<?xml version="1.0" encoding="iso-8859-1"?>
<!-- Generator: Adobe Illustrator 19.0.0, SVG Export Plug-In . SVG Version: 6.00 Build 0)  -->
<svg version="1.1" id="Layer_1" xmlns="http://www.w3.org/2000/svg" xmlns:xlink="http://www.w3.org/1999/xlink" x="0px" y="0px"
	 viewBox="0 0 512.043 512.043" style="enable-background:new 0 0 512.043 512.043;fill:#FFF" xml:space="preserve">
<g>
	<g>
		<g>
			<path d="M504.715,346.63L362.312,222.028c0.119,0.002,0.235,0.018,0.354,0.018c11.782,0,21.333-9.551,21.333-21.333v-21.333
				c0-11.782-9.551-21.333-21.333-21.333s-21.333,9.551-21.333,21.333v21.333c0,1.087,0.107,2.147,0.264,3.19l-7.549-6.606
				c-0.033-0.029-0.067-0.053-0.1-0.081c-0.367-0.318-0.741-0.627-1.13-0.92c-0.04-0.031-0.082-0.058-0.123-0.088
				c-0.097-0.072-0.196-0.141-0.295-0.211c-0.043-0.031-0.086-0.062-0.13-0.093c-0.152-0.107-0.305-0.214-0.46-0.317
				c-0.218-0.147-0.438-0.288-0.659-0.425c-0.036-0.022-0.072-0.043-0.107-0.064c-4.432-2.72-9.41-3.563-14.115-2.857
				c-0.11,0.016-0.219,0.032-0.328,0.05c-0.221,0.037-0.442,0.075-0.662,0.118c-0.32,0.062-0.638,0.132-0.953,0.208
				c-0.06,0.015-0.12,0.026-0.18,0.042c-0.747,0.188-1.479,0.414-2.195,0.679c-0.035,0.013-0.069,0.028-0.103,0.04
				c-0.097,0.037-0.193,0.076-0.29,0.114c-0.034,0.013-0.067,0.026-0.101,0.039c-0.463,0.184-0.919,0.38-1.366,0.596
				c-0.08,0.038-0.157,0.081-0.237,0.12c-0.25,0.125-0.499,0.252-0.744,0.386c-0.169,0.092-0.335,0.19-0.502,0.286
				c-0.105,0.061-0.212,0.12-0.316,0.183c-0.075,0.045-0.148,0.091-0.223,0.138c-4.61,2.843-8.186,7.433-9.51,13.289
				c-0.022,0.093-0.041,0.186-0.061,0.28c-0.038,0.174-0.073,0.348-0.107,0.523c-0.034,0.18-0.067,0.36-0.096,0.542
				c-0.034,0.206-0.064,0.414-0.092,0.622c-0.017,0.123-0.032,0.246-0.046,0.37c-0.014,0.122-0.033,0.242-0.046,0.364
				l-10.067,100.67c0,0,0,0,0,0l-2.123,21.227c0,0,0,0,0,0l-9.144,91.435c-1.848,18.482,19.168,30.334,34.027,19.189l61.655-46.241
				l33.307,99.92c3.726,11.177,15.807,17.218,26.985,13.492c11.177-3.726,17.218-15.807,13.492-26.985l-33.307-99.921h77.068
				C510.365,384.019,519.539,359.602,504.715,346.63z M384,341.352c-0.003,0-0.007,0-0.01,0c-1.129,0.001-2.268,0.089-3.407,0.276
				c-0.005,0.001-0.01,0.001-0.015,0.002c-0.516,0.085-1.031,0.192-1.546,0.316c-0.094,0.022-0.187,0.047-0.28,0.07
				c-0.497,0.127-0.994,0.266-1.488,0.431c-0.495,0.165-0.975,0.352-1.449,0.549c-0.089,0.037-0.177,0.073-0.265,0.111
				c-0.487,0.21-0.963,0.433-1.427,0.675c-0.004,0.002-0.009,0.005-0.013,0.007c-1.023,0.535-1.987,1.147-2.891,1.824
				c-0.003,0.002-0.006,0.004-0.008,0.006l-46.472,34.854l12.38-123.804l96.781,84.683H384z"/>
			<path d="M21.333,76.658c11.782,0,21.333-9.551,21.333-21.333V33.991c0-11.782-9.551-21.333-21.333-21.333
				C9.551,12.658,0,22.209,0,33.991v21.333C0,67.106,9.551,76.658,21.333,76.658z"/>
			<path d="M21.333,183.324c11.782,0,21.333-9.551,21.333-21.333v-21.333c0-11.782-9.551-21.333-21.333-21.333
				C9.551,119.324,0,128.876,0,140.658v21.333C0,173.773,9.551,183.324,21.333,183.324z"/>
			<path d="M341.333,72.713v21.333c0,11.782,9.551,21.333,21.333,21.333S384,105.828,384,94.046V72.713
				c0-11.782-9.551-21.333-21.333-21.333S341.333,60.931,341.333,72.713z"/>
			<path d="M21.333,289.991c11.782,0,21.333-9.551,21.333-21.333v-21.333c0-11.782-9.551-21.333-21.333-21.333
				C9.551,225.991,0,235.542,0,247.324v21.333C0,280.44,9.551,289.991,21.333,289.991z"/>
			<path d="M307.361,42.685h21.333c11.782,0,21.333-9.551,21.333-21.333c0-11.782-9.551-21.333-21.333-21.333h-21.333
				c-11.782,0-21.333,9.551-21.333,21.333C286.027,33.134,295.579,42.685,307.361,42.685z"/>
			<path d="M140.639,341.352h-21.333c-11.782,0-21.333,9.551-21.333,21.333s9.551,21.333,21.333,21.333h21.333
				c11.782,0,21.333-9.551,21.333-21.333S152.421,341.352,140.639,341.352z"/>
			<path d="M38.934,341.932c-3.845-5.601-10.294-9.274-17.6-9.274C9.551,332.658,0,342.209,0,353.991v8.694
				c0,11.782,9.551,21.333,21.333,21.333h12.639c11.782,0,21.333-9.551,21.333-21.333C55.306,352.611,48.323,344.168,38.934,341.932
				z"/>
			<path d="M243.361,21.352c0-11.782-9.551-21.333-21.333-21.333h-21.333c-11.782,0-21.333,9.551-21.333,21.333
				c0,11.782,9.551,21.333,21.333,21.333h21.333C233.81,42.685,243.361,33.134,243.361,21.352z"/>
			<path d="M247.306,341.352h-21.333c-11.782,0-21.333,9.551-21.333,21.333s9.551,21.333,21.333,21.333h21.333
				c11.782,0,21.333-9.551,21.333-21.333S259.088,341.352,247.306,341.352z"/>
			<path d="M136.694,21.352c0-11.782-9.551-21.333-21.333-21.333H94.027c-11.782,0-21.333,9.551-21.333,21.333
				c0,11.782,9.551,21.333,21.333,21.333h21.333C127.143,42.685,136.694,33.134,136.694,21.352z"/>
		</g>
	</g>
</g>
<g>
</g>
<g>
</g>
<g>
</g>
<g>
</g>
<g>
</g>
<g>
</g>
<g>
</g>
<g>
</g>
<g>
</g>
<g>
</g>
<g>
</g>
<g>
</g>
<g>
</g>
<g>
</g>
<g>
</g>
</svg>
