<svg xmlns="http://www.w3.org/2000/svg" xmlns:xlink="http://www.w3.org/1999/xlink" width="194.9" height="236.71" viewBox="0 0 194.9 236.71">
  <defs>
    <clipPath id="clip-Check_Module_Icon_">
      <rect width="194.9" height="236.71"/>
    </clipPath>
  </defs>
  <g id="Check_Module_Icon_" data-name="Check Module Icon " clip-path="url(#clip-Check_Module_Icon_)">
    <g id="Group_416" data-name="Group 416" transform="translate(-0.131 0.147)">
      <g id="Group_406" data-name="Group 406" transform="translate(0 0)">
        <path id="Path_372" data-name="Path 372" d="M1292.49,755.779a9.091,9.091,0,0,1,8.91,7.2,10.535,10.535,0,0,0,10.12,8.3h6.23v9.075h-50.6v-9.075h6.23a10.273,10.273,0,0,0,10.12-8.3,9.155,9.155,0,0,1,8.99-7.2Zm61.08,15.5a15.612,15.612,0,0,1,15.57,15.558V935.409a15.612,15.612,0,0,1-15.57,15.557H1231.33a15.612,15.612,0,0,1-15.57-15.557V786.834a15.612,15.612,0,0,1,15.57-15.558h15.06v11.668a18.042,18.042,0,0,0,18.16,18.151h55.8a18.042,18.042,0,0,0,18.16-18.151V771.276ZM1292.38,735a30.274,30.274,0,0,0-14.33,3.6,28.115,28.115,0,0,0-11.68,11.668h-35.04A36.647,36.647,0,0,0,1195,786.834V935.409a36.424,36.424,0,0,0,36.33,36.3h122.24a36.424,36.424,0,0,0,36.33-36.3V786.834a36.093,36.093,0,0,0-36.33-36.3h-34.78A30.116,30.116,0,0,0,1292.38,735Z" transform="translate(-1195 -735)" fill="#f2f3f4"/>
      </g>
      <g id="Group_407" data-name="Group 407" transform="translate(55.537 103.134)">
        <path id="Path_373" data-name="Path 373" d="M1316.46,841.285l-32.96,32.93-15.06-15.039a10.455,10.455,0,0,0-14.79,14.78l22.32,22.3a10.343,10.343,0,0,0,14.79,0l40.23-40.449a10.329,10.329,0,0,0,0-14.78C1326.84,836.877,1320.61,837.4,1316.46,841.285Z" transform="translate(-1250.537 -838.134)" fill="#f2f3f4"/>
      </g>
    </g>
  </g>
</svg>
