<?xml version="1.0" encoding="iso-8859-1"?>
<!-- Generator: Adobe Illustrator 19.0.0, SVG Export Plug-In . SVG Version: 6.00 Build 0)  -->
<svg version="1.1" id="Layer_1" xmlns="http://www.w3.org/2000/svg" xmlns:xlink="http://www.w3.org/1999/xlink" x="0px" y="0px"
	 viewBox="0 0 512 512" style="enable-background:new 0 0 512 512; fill:#FFF" xml:space="preserve">
<g>
	<g>
		<path d="M187.733,0C80.708,0,0,33.015,0,76.8v358.4C0,478.985,80.708,512,187.733,512s187.733-33.015,187.733-76.8V76.8
			C375.467,33.015,294.758,0,187.733,0z M358.4,435.2c0,28.254-70.093,59.733-170.667,59.733S17.067,463.454,17.067,435.2V109.918
			c29.15,26.283,92.979,43.682,170.667,43.682S329.25,136.201,358.4,109.918V435.2z M187.733,136.533
			c-100.574,0-170.667-31.479-170.667-59.733c0-28.254,70.093-59.733,170.667-59.733S358.4,48.546,358.4,76.8
			C358.4,105.054,288.307,136.533,187.733,136.533z"/>
	</g>
</g>
<g>
	<g>
		<path d="M503.467,0h-102.4c-4.719,0-8.533,3.814-8.533,8.533v494.933c0,4.719,3.814,8.533,8.533,8.533h102.4
			c4.719,0,8.533-3.814,8.533-8.533V8.533C512,3.814,508.186,0,503.467,0z M494.933,494.933H409.6v-25.6l17.067,0.008
			c4.71,0,8.533-3.814,8.533-8.533c0-4.71-3.814-8.533-8.533-8.533l-17.067-0.009v-34.133h34.133c4.719,0,8.533-3.814,8.533-8.533
			s-3.814-8.533-8.533-8.533H409.6v-34.133h17.067c4.719,0,8.533-3.814,8.533-8.533s-3.814-8.533-8.533-8.533H409.6v-34.133h34.133
			c4.719,0,8.533-3.814,8.533-8.533s-3.814-8.533-8.533-8.533H409.6v-34.133h17.067c4.719,0,8.533-3.814,8.533-8.533
			s-3.814-8.533-8.533-8.533H409.6v-34.133h34.133c4.719,0,8.533-3.814,8.533-8.533s-3.814-8.533-8.533-8.533H409.6v-34.133h17.067
			c4.719,0,8.533-3.814,8.533-8.533c0-4.719-3.814-8.533-8.533-8.533H409.6v-34.133h34.133c4.719,0,8.533-3.814,8.533-8.533
			s-3.814-8.533-8.533-8.533H409.6v-34.15l17.067,0.009c4.71,0,8.533-3.814,8.533-8.533c0-4.71-3.814-8.533-8.533-8.533L409.6,42.65
			V17.067h85.333V494.933z"/>
	</g>
</g>
<g>
</g>
<g>
</g>
<g>
</g>
<g>
</g>
<g>
</g>
<g>
</g>
<g>
</g>
<g>
</g>
<g>
</g>
<g>
</g>
<g>
</g>
<g>
</g>
<g>
</g>
<g>
</g>
<g>
</g>
</svg>
