<svg xmlns="http://www.w3.org/2000/svg" xmlns:xlink="http://www.w3.org/1999/xlink" width="27.971" height="25.122" viewBox="0 0 27.971 25.122"><defs><style>.a{fill:none;}.b{clip-path:url(#a);}.c{fill:#8a8a8a;stroke:#f2f3f4;}.d{fill:#fff;}.e,.f,.h{fill:#15b9f9;}.g,.h{stroke:none;}.i{filter:url(#d);}.j{filter:url(#b);}</style><clipPath id="a"><rect class="a" width="27.971" height="25.122"/></clipPath><filter id="b" x="9.5" y="0.621" width="17.849" height="17.849" filterUnits="userSpaceOnUse"><feOffset dx="1" dy="1" input="SourceAlpha"/><feGaussianBlur stdDeviation="0.5" result="c"/><feFlood flood-color="#323132"/><feComposite operator="in" in2="c"/><feComposite in="SourceGraphic"/></filter><filter id="d" x="5.5" y="13.621" width="8.657" height="8.657" filterUnits="userSpaceOnUse"><feOffset dx="1" dy="1" input="SourceAlpha"/><feGaussianBlur stdDeviation="0.5" result="e"/><feFlood flood-color="#323132"/><feComposite operator="in" in2="e"/><feComposite in="SourceGraphic"/></filter></defs><g class="b" transform="translate(0 0)"><g class="c" transform="translate(0 8.122)"><path class="g" d="M0,0H24a0,0,0,0,1,0,0V15a2,2,0,0,1-2,2H2a2,2,0,0,1-2-2V0A0,0,0,0,1,0,0Z"/><path class="a" d="M1,.5H23a.5.5,0,0,1,.5.5V15A1.5,1.5,0,0,1,22,16.5H2A1.5,1.5,0,0,1,.5,15V1A.5.5,0,0,1,1,.5Z"/></g><path class="d" d="M1,0H7A1,1,0,0,1,8,1V3A0,0,0,0,1,8,3H0A0,0,0,0,1,0,3V1A1,1,0,0,1,1,0Z" transform="translate(0 5.122)"/><g class="j" transform="matrix(1, 0, 0, 1, 0, 0)"><path class="e" d="M0,0H4A0,0,0,0,1,4,0V15a2,2,0,0,1-2,2H2a2,2,0,0,1-2-2V0A0,0,0,0,1,0,0Z" transform="translate(12.83 15.97) rotate(-135)"/></g><g class="i" transform="matrix(1, 0, 0, 1, 0, 0)"><g class="f" transform="translate(8.83 19.78) rotate(-135)"><path class="g" d="M 3.190984964370728 3.5 L 0.8090148568153381 3.5 L 1.99999988079071 1.118029952049255 L 3.190984964370728 3.5 Z"/><path class="h" d="M 1.99999988079071 2.236070156097412 L 1.618034839630127 3 L 2.381964921951294 3 L 1.99999988079071 2.236070156097412 M 1.99999988079071 0 L 4 4 L -2.384185791015625e-07 4 L 1.99999988079071 0 Z"/></g></g></g></svg>