<?xml version="1.0" encoding="iso-8859-1"?>
<!-- Generator: Adobe Illustrator 19.0.0, SVG Export Plug-In . SVG Version: 6.00 Build 0)  -->
<svg version="1.1" id="Layer_1" xmlns="http://www.w3.org/2000/svg" xmlns:xlink="http://www.w3.org/1999/xlink" x="0px" y="0px"
	 viewBox="0 0 512 512" style="enable-background:new 0 0 512 512; fill:#FFF;" xml:space="preserve">
<g>
	<g>
		<path d="M511.949,133.188c0.282-2.594-0.623-5.291-2.688-7.194c-3.456-3.191-8.875-2.987-12.058,0.486l-70.536,76.416
			c0,0-0.137-113.886-0.171-114.202l23.723-27.674c2.176-2.526,2.671-6.093,1.271-9.122c-1.399-3.021-4.42-4.966-7.757-4.966h-179.2
			c-2.492,0-4.855,1.084-6.477,2.978l-102.4,119.467c-2.176,2.526-2.671,6.093-1.271,9.122c1.391,3.021,4.412,4.966,7.748,4.966
			h34.133v42.667H128v-93.867c0-3.507-2.15-6.656-5.419-7.945c-3.243-1.289-6.989-0.435-9.37,2.133L2.278,245.922
			C0.819,247.501,0,249.583,0,251.733v179.2c0,3.516,2.15,6.664,5.427,7.945c1.007,0.401,2.065,0.589,3.106,0.589
			c2.33,0,4.625-0.956,6.263-2.748L102.4,341.82v114.714c0,4.71,3.814,8.533,8.533,8.533h221.841c4.719,0,8.533-3.823,8.533-8.533
			v-128h51.226v94.839c0,3.524,2.159,6.682,5.444,7.953c1.007,0.393,2.048,0.58,3.089,0.58c2.347,0,4.651-0.973,6.289-2.773
			l102.4-111.906c1.442-1.57,2.244-3.627,2.244-5.76V134.118C512,133.811,511.983,133.495,511.949,133.188z M110.933,226.133
			c-4.719,0-8.533,3.823-8.533,8.533v81.997l-85.333,92.442V255.078l93.867-101.086V226.133z M180.685,166.4L268.459,64h156.723
			l-87.774,102.4H180.685z M324.241,448H119.467V243.2h204.774V448z M394.795,237.414c-1.451,1.57-2.261,3.644-2.261,5.786v68.267
			h-51.226v-76.8c0-4.71-3.814-8.533-8.533-8.533H213.333v-42.667h128c2.492,0,4.855-1.084,6.477-2.978l61.79-72.09
			c0,0,0.205,112.119,0.307,112.649L394.795,237.414z M494.933,308.147L409.6,401.408V246.537l85.333-92.442V308.147z"/>
	</g>
</g>
<g>
</g>
<g>
</g>
<g>
</g>
<g>
</g>
<g>
</g>
<g>
</g>
<g>
</g>
<g>
</g>
<g>
</g>
<g>
</g>
<g>
</g>
<g>
</g>
<g>
</g>
<g>
</g>
<g>
</g>
</svg>
