<?xml version="1.0" encoding="iso-8859-1"?>
<!-- Generator: Adobe Illustrator 19.0.0, SVG Export Plug-In . SVG Version: 6.00 Build 0)  -->
<svg version="1.1" id="Layer_1" xmlns="http://www.w3.org/2000/svg" xmlns:xlink="http://www.w3.org/1999/xlink" x="0px" y="0px"
	 viewBox="0 0 512 512" style="enable-background:new 0 0 512 512; fill:#FFF" xml:space="preserve">
<g>
	<g>
		<path d="M435.2,358.4h-59.127H85.333V67.618V8.533C85.333,3.814,81.519,0,76.8,0s-8.533,3.814-8.533,8.533v358.4
			c0,4.719,3.814,8.533,8.533,8.533h358.4c4.719,0,8.533-3.814,8.533-8.533S439.919,358.4,435.2,358.4z"/>
	</g>
</g>
<g>
	<g>
		<path d="M503.467,392.533H8.533c-4.719,0-8.533,3.814-8.533,8.533v102.4C0,508.186,3.814,512,8.533,512h494.933
			c4.719,0,8.533-3.814,8.533-8.533v-102.4C512,396.348,508.186,392.533,503.467,392.533z M494.933,494.933H17.067V409.6h25.6
			l-0.009,17.067c0,4.71,3.814,8.533,8.533,8.533c4.71,0,8.533-3.814,8.533-8.533l0.009-17.067h34.133v34.133
			c0,4.719,3.814,8.533,8.533,8.533s8.533-3.814,8.533-8.533V409.6h34.133v17.067c0,4.719,3.814,8.533,8.533,8.533
			c4.719,0,8.533-3.814,8.533-8.533V409.6h34.133v34.133c0,4.719,3.814,8.533,8.533,8.533s8.533-3.814,8.533-8.533V409.6h34.133
			v17.067c0,4.719,3.814,8.533,8.533,8.533s8.533-3.814,8.533-8.533V409.6h34.133v34.133c0,4.719,3.814,8.533,8.533,8.533
			s8.533-3.814,8.533-8.533V409.6h34.133v17.067c0,4.719,3.814,8.533,8.533,8.533s8.533-3.814,8.533-8.533V409.6h34.133v34.133
			c0,4.719,3.814,8.533,8.533,8.533s8.533-3.814,8.533-8.533V409.6h34.15l-0.009,17.067c0,4.71,3.814,8.533,8.533,8.533
			c4.71,0,8.533-3.814,8.533-8.533l0.009-17.067h25.583V494.933z"/>
	</g>
</g>
<g>
	<g>
		<path d="M443.11,273.186c-1.263-3.029-4.224-5.001-7.501-5.001h-48.964C382.438,153.66,290.074,61.295,175.539,57.097V8.124
			c0-3.277-1.971-6.238-5.001-7.501c-3.004-1.254-6.511-0.58-8.841,1.724l-56.892,56.311c-1.527,1.519-2.398,3.584-2.406,5.743
			c-0.009,2.15,0.836,4.224,2.347,5.751l56.892,57.464c1.553,1.579,3.652,2.415,5.777,2.415c1.041,0,2.091-0.196,3.089-0.614
			c3.046-1.254,5.043-4.224,5.043-7.518V73.344c105.574,4.181,190.66,89.267,194.842,194.842h-48.555
			c-3.294,0-6.263,1.988-7.518,5.043c-1.254,3.038-0.538,6.545,1.8,8.866l57.472,56.892c1.51,1.502,3.567,2.347,5.709,2.347
			c2.338-0.128,4.258-0.87,5.777-2.415l56.311-56.892C443.691,279.697,444.373,276.207,443.11,273.186z M159.292,102.144
			l-37.274-37.649l37.274-36.89V102.144z M379.238,321.715l-37.649-37.274h74.539L379.238,321.715z"/>
	</g>
</g>
<g>
</g>
<g>
</g>
<g>
</g>
<g>
</g>
<g>
</g>
<g>
</g>
<g>
</g>
<g>
</g>
<g>
</g>
<g>
</g>
<g>
</g>
<g>
</g>
<g>
</g>
<g>
</g>
<g>
</g>
</svg>
