<svg xmlns="http://www.w3.org/2000/svg" xmlns:xlink="http://www.w3.org/1999/xlink" width="30" height="30" viewBox="0 0 30 30"><defs><style>.a{fill:none;}.b{clip-path:url(#a);}.c{fill:#f2f3f4;}.d,.e{stroke:none;}.e{fill:#707070;}</style><clipPath id="a"><rect class="a" width="30" height="30"/></clipPath></defs><g class="b"><g class="c"><path class="d" d="M 23.53007888793945 28.94174766540527 L 15.266770362854 23.72908973693848 L 15 23.56081008911133 L 14.733229637146 23.72908973693848 L 6.518125534057617 28.91133880615234 L 9.010540008544922 18.97714996337891 L 9.085309982299805 18.67914009094238 L 8.853230476379395 18.47779083251953 L 1.20285952091217 11.8405933380127 L 10.8442497253418 10.87150955200195 L 11.14430999755859 10.84134960174561 L 11.25761985778809 10.56188011169434 L 15.020583152771 1.280051469802856 L 19.1423397064209 10.57668018341064 L 19.2596607208252 10.84129047393799 L 19.54755020141602 10.87131977081299 L 28.83682632446289 11.84035301208496 L 21.52397918701172 18.48542976379395 L 21.31057929992676 18.67934036254883 L 21.37153053283691 18.96116065979004 L 23.53007888793945 28.94174766540527 Z"/><path class="e" d="M 15.04116535186768 2.560092926025391 L 11.72098922729492 10.74972915649414 L 11.49438095092773 11.30868911743164 L 10.89426040649414 11.36901092529297 L 2.405719757080078 12.22221755981445 L 9.180889129638672 18.10012054443359 L 9.645040512084961 18.50279998779297 L 9.495510101318359 19.09881973266602 L 7.306756973266602 27.82268905639648 L 14.46646976470947 23.30620002746582 L 15 22.96963882446289 L 15.53353023529053 23.30620002746582 L 22.78964614868164 27.88350105285645 L 20.8828296661377 19.06686019897461 L 20.76091957092285 18.50321006774902 L 21.18772125244141 18.11537933349609 L 27.67363548278809 12.22172355651855 L 19.49567985534668 11.36861991882324 L 18.91989135742188 11.30855941772461 L 18.68524932861328 10.77932929992676 L 15.04116535186768 2.560092926025391 M 15 0 L 19.59943008422852 10.37401962280273 L 30 11.45898056030273 L 21.8602294921875 18.85546875 L 24.27050971984863 30 L 15 24.15197944641113 L 5.729490280151367 30 L 8.525569915771484 18.85546875 L 0 11.45898056030273 L 10.79425048828125 10.37401962280273 L 15 0 Z"/></g></g></svg>