<svg xmlns="http://www.w3.org/2000/svg" width="30" height="30" viewBox="0 0 30 30">
  <g id="Group_358" data-name="Group 358" transform="translate(-4337 3393)">
    <g id="SymMaxWin" transform="translate(4337 -3393)">
      <g id="Path_289" data-name="Path 289" fill="#323132">
        <path d="M 25 29.5 L 5 29.5 C 2.51869010925293 29.5 0.5 27.48130989074707 0.5 25 L 0.5 5 C 0.5 2.51869010925293 2.51869010925293 0.5 5 0.5 L 25 0.5 C 27.48130989074707 0.5 29.5 2.51869010925293 29.5 5 L 29.5 25 C 29.5 27.48130989074707 27.48130989074707 29.5 25 29.5 Z" stroke="none"/>
        <path d="M 5 1 C 2.794389724731445 1 1 2.794389724731445 1 5 L 1 25 C 1 27.20561027526855 2.794389724731445 29 5 29 L 25 29 C 27.20561027526855 29 29 27.20561027526855 29 25 L 29 5 C 29 2.794389724731445 27.20561027526855 1 25 1 L 5 1 M 5 0 L 25 0 C 27.76141929626465 0 30 2.238580703735352 30 5 L 30 25 C 30 27.76141929626465 27.76141929626465 30 25 30 L 5 30 C 2.238580703735352 30 0 27.76141929626465 0 25 L 0 5 C 0 2.238580703735352 2.238580703735352 0 5 0 Z" stroke="none" fill="#8a8a8a"/>
      </g>
    </g>
    <g id="InfoMenu_3" data-name="InfoMenu – 3" transform="translate(4340.5 -3389.5)">
      <g id="Menu">
        <path id="Menu-2" data-name="Menu" d="M12,19V16h8v3ZM4.5,9V6h8V9ZM-3-1V-4H5v3Z" transform="translate(3 4)" fill="#fff"/>
      </g>
    </g>
    <rect id="Rectangle_1296" data-name="Rectangle 1296" width="0.5" height="18.1" transform="translate(4342.5 -3385.916)" fill="#fff"/>
    <rect id="Rectangle_1297" data-name="Rectangle 1297" width="0.5" height="4" transform="translate(4343.5 -3377.8) rotate(-90)" fill="#fff"/>
    <rect id="Rectangle_1298" data-name="Rectangle 1298" width="0.5" height="11.5" transform="translate(4343.5 -3367.8) rotate(-90)" fill="#fff"/>
  </g>
</svg>
