<svg xmlns="http://www.w3.org/2000/svg" xmlns:xlink="http://www.w3.org/1999/xlink" width="197.301" height="197.3" viewBox="0 0 197.301 197.3">
  <defs>
    <clipPath id="clip-PREP_Module_Icon">
      <rect width="197.3" height="197.3"/>
    </clipPath>
  </defs>
  <g id="PREP_Module_Icon" data-name="PREP Module Icon" clip-path="url(#clip-PREP_Module_Icon)">
    <g id="Group_413" data-name="Group 413" transform="translate(-544 -754)">
      <g id="Group_409" data-name="Group 409">
        <path id="Path_374" data-name="Path 374" d="M609.313,770.474a16.65,16.65,0,1,1-16.635,16.65,16.873,16.873,0,0,1,16.635-16.65Zm.434-16.806a32.515,32.515,0,0,0-8.289,1.082c-11.552,3.237-20.793,12.024-23.565,23.587H552.017a8.325,8.325,0,0,0,0,16.649h25.876a32.367,32.367,0,0,0,39.737,23.587A32.163,32.163,0,0,0,641.2,794.986h91.488a8.325,8.325,0,0,0,0-16.649H641.2a32.68,32.68,0,0,0-31.448-24.669Z"/>
      </g>
      <g id="Group_410" data-name="Group 410">
        <path id="Path_375" data-name="Path 375" d="M674.925,836.147A16.65,16.65,0,1,1,658.291,852.8a16.872,16.872,0,0,1,16.634-16.649Zm.435-16.806a33.024,33.024,0,0,0-31.855,24.668H552.017a8.325,8.325,0,0,0,0,16.65h91.488a32.367,32.367,0,0,0,39.737,23.586,32.159,32.159,0,0,0,23.565-23.586h25.876a8.325,8.325,0,0,0,0-16.65H706.807a32.678,32.678,0,0,0-31.447-24.668Z"/>
      </g>
      <g id="Group_411" data-name="Group 411">
        <path id="Path_376" data-name="Path 376" d="M609.313,901.82a16.65,16.65,0,1,1-16.635,16.649,16.872,16.872,0,0,1,16.635-16.649Zm.434-16.807a32.515,32.515,0,0,0-8.289,1.082,33.506,33.506,0,0,0-23.565,24.049H552.017a8.286,8.286,0,0,0-8.317,8.325,8.2,8.2,0,0,0,8.317,7.862h25.876a32.367,32.367,0,0,0,39.737,23.587A32.163,32.163,0,0,0,641.2,926.331h91.488a8.324,8.324,0,0,0,0-16.649H641.2a32.681,32.681,0,0,0-31.448-24.669Z"/>
      </g>
    </g>
  </g>
</svg>
