<?xml version="1.0" encoding="iso-8859-1"?>
<!-- Generator: Adobe Illustrator 19.0.0, SVG Export Plug-In . SVG Version: 6.00 Build 0)  -->
<svg version="1.1" id="Layer_1" xmlns="http://www.w3.org/2000/svg" xmlns:xlink="http://www.w3.org/1999/xlink" x="0px" y="0px"
	 viewBox="0 0 512.032 512.032" style="enable-background:new 0 0 512.032 512.032; fill:#FFF" xml:space="preserve">
<g>
	<g>
		<path d="M424.415,98.085c24.64,16.32,57.813,9.6,74.133-15.04c16.32-24.64,9.6-57.813-15.04-74.133s-57.813-9.6-74.133,15.04
			c-11.84,17.92-11.84,41.173,0,59.093l-91.093,91.093c-0.533,0.533-0.96,1.173-1.28,1.92c-38.187-36.373-98.667-34.88-135.04,3.413
			c-0.747,0.853-1.493,1.6-2.24,2.453l-69.333-39.573c1.387-4.587,2.027-9.173,2.133-13.973c0.32-29.76-23.573-54.293-53.333-54.613
			S4.895,97.339,4.575,127.099c-0.32,29.76,23.573,54.293,53.333,54.613c16.64,0.213,32.533-7.36,42.88-20.373l66.453,37.973
			c-20.16,36.373-14.507,81.6,14.08,111.893l-67.2,66.987c-5.44-2.987-11.52-4.587-17.6-4.587
			c-20.587,0-37.333,16.747-37.333,37.333s16.747,37.333,37.333,37.333s37.333-16.747,37.333-37.333c0-6.187-1.6-12.267-4.587-17.6
			l68.16-68.267c34.667,23.467,80.533,21.76,113.28-4.373l56.533,66.027c-28.053,30.187-26.24,77.333,3.947,105.387
			c30.187,28.053,77.333,26.24,105.387-3.947c28.053-30.187,26.24-77.333-3.947-105.387c-13.867-12.8-32-19.84-50.773-19.84
			c-13.333,0-26.453,3.627-37.973,10.453l-58.027-67.627c26.667-32.96,28.373-79.573,4.267-114.453c1.173-0.533,2.24-1.28,3.2-2.133
			L424.415,98.085z M453.855,21.605c17.707,0,32,14.293,32,32s-14.293,32-32,32s-32-14.293-32-32S436.148,21.605,453.855,21.605z
			 M59.188,160.272c-17.707,0-32-14.293-32-32s14.293-32,32-32s32,14.293,32,32S76.788,160.272,59.188,160.272z M96.522,426.939
			c-8.853,0-16-7.147-16-16c0-8.853,7.147-16,16-16s16,7.147,16,16C112.522,419.792,105.268,426.939,96.522,426.939z
			 M421.855,384.272c29.44,0,53.333,23.893,53.333,53.333c-0.107,29.44-23.893,53.227-53.333,53.333
			c-29.44,0-53.333-23.893-53.333-53.333S392.415,384.272,421.855,384.272z M251.188,320.272c-41.28,0-74.667-33.387-74.667-74.667
			s33.387-74.667,74.667-74.667c41.28,0,74.667,33.387,74.667,74.667C325.748,286.779,292.362,320.165,251.188,320.272z"/>
	</g>
</g>
<g>
</g>
<g>
</g>
<g>
</g>
<g>
</g>
<g>
</g>
<g>
</g>
<g>
</g>
<g>
</g>
<g>
</g>
<g>
</g>
<g>
</g>
<g>
</g>
<g>
</g>
<g>
</g>
<g>
</g>
</svg>
