<svg xmlns="http://www.w3.org/2000/svg" xmlns:xlink="http://www.w3.org/1999/xlink" width="23" height="21" viewBox="0 0 23 21"><defs><style>.a,.c,.e{fill:none;}.b{clip-path:url(#a);}.d{fill:#323132;}.e{stroke:#51e0dc;stroke-width:2px;}.f,.g{stroke:none;}.g{fill:#51e0dc;}.h{filter:url(#b);}</style><clipPath id="a"><rect class="a" width="23" height="21"/></clipPath><filter id="b" x="0" y="0" width="21" height="21" filterUnits="userSpaceOnUse"><feOffset dx="1" dy="1" input="SourceAlpha"/><feGaussianBlur stdDeviation="0.5" result="c"/><feFlood flood-color="#323132"/><feComposite operator="in" in2="c"/><feComposite in="SourceGraphic"/></filter></defs><g class="b" transform="translate(0 0)"><g class="h" transform="matrix(1, 0, 0, 1, 0, 0)"><g class="c" transform="translate(0.5 0.5)"><path class="f" d="M9,0A9,9,0,1,1,0,9,9,9,0,0,1,9,0Z"/><path class="g" d="M 9 2 C 5.140190124511719 2 2 5.140190124511719 2 9 C 2 12.85980987548828 5.140190124511719 16 9 16 C 12.85980987548828 16 16 12.85980987548828 16 9 C 16 5.140190124511719 12.85980987548828 2 9 2 M 9 0 C 13.97056007385254 0 18 4.029439926147461 18 9 C 18 13.97056007385254 13.97056007385254 18 9 18 C 4.029439926147461 18 0 13.97056007385254 0 9 C 0 4.029439926147461 4.029439926147461 0 9 0 Z"/></g></g><rect class="d" width="5" height="5" rx="2.5" transform="translate(14.5 7.5)"/><path class="e" d="M.243,8.243,4.485,4,.243-.243" transform="translate(18.157 1.5) rotate(45)"/></g></svg>