<svg xmlns="http://www.w3.org/2000/svg" xmlns:xlink="http://www.w3.org/1999/xlink" width="309.9" height="202.34" viewBox="0 0 309.9 202.34">
  <defs>
    <clipPath id="clip-Review_Module_Icon">
      <rect width="309.9" height="202.34"/>
    </clipPath>
  </defs>
  <g id="Review_Module_Icon" data-name="Review Module Icon" clip-path="url(#clip-Review_Module_Icon)">
    <g id="Group_415" data-name="Group 415" transform="translate(-1826 -760)">
      <g id="Group_404" data-name="Group 404">
        <g id="Group_403" data-name="Group 403">
          <path id="Path_371" data-name="Path 371" d="M2344.51,759.7h-26.35v17.595c0,5.279-3.52,8.8-8.79,8.8s-8.79-3.519-8.79-8.8V759.7h-26.35v26.393c0,5.278-3.52,8.8-8.79,8.8s-8.79-3.519-8.79-8.8V759.7H2230.3v17.595c0,5.279-3.52,8.8-8.79,8.8s-8.79-3.519-8.79-8.8V759.7h-26.35v26.393c0,5.278-3.52,8.8-8.79,8.8s-8.79-3.519-8.79-8.8V759.7h-26.35v17.595c0,5.279-3.52,8.8-8.79,8.8s-8.79-3.519-8.79-8.8V759.7h-26.35v26.393c0,5.278-3.52,8.8-8.79,8.8s-8.79-3.519-8.79-8.8V759.7h-26.35v17.595c0,5.279-3.52,8.8-8.79,8.8s-8.79-3.519-8.79-8.8V759.7h-26.35v26.393c0,5.278-3.52,8.8-8.79,8.8s-8.79-3.519-8.79-8.8V759.7h-26.35v17.595c0,5.279-3.52,8.8-8.79,8.8s-8.79-3.519-8.79-8.8V759.7h-26.35v26.393c0,5.278-3.52,8.8-8.79,8.8s-8.79-3.519-8.79-8.8V759.7h-26.35v17.595c0,5.279-3.52,8.8-8.79,8.8s-8.79-3.519-8.79-8.8V759.7h-26.35c-5.28,0-8.79,3.519-8.79,8.8V867.03c0,.88,0,.88.88,1.76l43.93,87.976a1.893,1.893,0,0,0,1.76,1.759c.87.88,1.75.88,2.63,1.76,1.76,1.759,2.64,1.759,3.52,1.759a11.769,11.769,0,0,0,4.39-.88,6.037,6.037,0,0,1,2.63-1.759c-.87.88.88-.88.88-1.76s.88-.879.88-1.759V838.878h43.93V955.886c0,.88.88.88.88,1.759s.88.88.88,1.76.88.88,1.76.88l1.75.879c.88,0,1.76.88,3.52.88a6.6,6.6,0,0,0,3.51-.88,1.892,1.892,0,0,0,1.76-1.759c.88-.88.88-1.76,1.76-1.76l41.29-82.7h65.9c5.27,0,8.78-3.519,8.78-8.8V839.758h281.15c5.28,0,8.79-3.519,8.79-8.8V769.377" fill="#f2f3f4"/>
        </g>
      </g>
    </g>
  </g>
</svg>
