<svg xmlns="http://www.w3.org/2000/svg" xmlns:xlink="http://www.w3.org/1999/xlink" width="24.5" height="24.5" viewBox="0 0 24.5 24.5"><defs><style>.a{fill:none;}.b{clip-path:url(#a);}.c{fill:#8a8a8a;stroke:#f2f3f4;}.d{fill:#fff;}.e,.f,.i{fill:#51e0dc;}.g{fill:#b3b3b3;}.h,.i,.j{stroke:none;}.j{fill:#f2f3f4;}.k{filter:url(#d);}.l{filter:url(#b);}</style><clipPath id="a"><rect class="a" width="24.5" height="24.5"/></clipPath><filter id="b" x="12.671" y="0" width="7" height="12" filterUnits="userSpaceOnUse"><feOffset dx="1" dy="1" input="SourceAlpha"/><feGaussianBlur stdDeviation="0.5" result="c"/><feFlood flood-color="#323132"/><feComposite operator="in" in2="c"/><feComposite in="SourceGraphic"/></filter><filter id="d" x="9.5" y="4.904" width="13" height="11" filterUnits="userSpaceOnUse"><feOffset dx="1" dy="1" input="SourceAlpha"/><feGaussianBlur stdDeviation="0.5" result="e"/><feFlood flood-color="#323132"/><feComposite operator="in" in2="e"/><feComposite in="SourceGraphic"/></filter></defs><g class="b" transform="translate(0 0)"><g class="c" transform="translate(0 7.5)"><path class="h" d="M0,0H22a0,0,0,0,1,0,0V15a2,2,0,0,1-2,2H2a2,2,0,0,1-2-2V0A0,0,0,0,1,0,0Z"/><path class="a" d="M1,.5H21a.5.5,0,0,1,.5.5V15A1.5,1.5,0,0,1,20,16.5H2A1.5,1.5,0,0,1,.5,15V1A.5.5,0,0,1,1,.5Z"/></g><path class="d" d="M1,0H7A1,1,0,0,1,8,1V3A0,0,0,0,1,8,3H0A0,0,0,0,1,0,3V1A1,1,0,0,1,1,0Z" transform="translate(0 4.5)"/><g class="l" transform="matrix(1, 0, 0, 1, 0, 0)"><rect class="e" width="4" height="9" transform="translate(17.17 9.5) rotate(180)"/></g><g class="k" transform="matrix(1, 0, 0, 1, 0, 0)"><g class="f" transform="translate(20 13.4) rotate(180)"><path class="h" d="M 9.097879409790039 7.500002384185791 L 0.902119517326355 7.500002384185791 L 4.999999523162842 0.9434022903442383 L 9.097879409790039 7.500002384185791 Z"/><path class="i" d="M 4.999999523162842 1.886801719665527 L 1.804244995117188 7.000002384185791 L 8.195754051208496 7.000002384185791 L 4.999999523162842 1.886801719665527 M 4.999999523162842 0.4433975219726563 C 5.163042068481445 0.4433975219726563 5.326084613800049 0.5217323303222656 5.423999309539795 0.6784024238586426 L 9.521879196166992 7.235002517700195 C 9.730019569396973 7.56802225112915 9.490589141845703 8.000001907348633 9.097879409790039 8.000001907348633 L 0.9021196365356445 8.000001907348633 C 0.5094099044799805 8.000001907348633 0.2699794769287109 7.56802225112915 0.4781198501586914 7.235002517700195 L 4.575999736785889 0.6784024238586426 C 4.673914432525635 0.5217323303222656 4.836956977844238 0.4433975219726563 4.999999523162842 0.4433975219726563 Z"/></g></g><g class="g" transform="translate(0 14.5)"><path class="h" d="M 20.30768966674805 9.5 L 1.846150040626526 9.5 C 1.139217615127563 9.5 0.5578170418739319 9.025328636169434 0.5040608644485474 8.424400329589844 L 3.832310438156128 0.5 L 23.83979225158691 0.5 L 21.67255973815918 8.197830200195313 L 21.65385055541992 8.264289855957031 L 21.65385055541992 8.333330154418945 C 21.65385055541992 8.976630210876465 21.04997062683105 9.5 20.30768966674805 9.5 Z"/><path class="j" d="M 4.164615631103516 1 L 1.022178649902344 8.481992721557617 C 1.110576629638672 8.774636268615723 1.45210075378418 9 1.846149444580078 9 L 20.30768966674805 9 C 20.76635932922363 9 21.15385055541992 8.694700241088867 21.15385055541992 8.333330154418945 L 21.15385055541992 8.195249557495117 L 21.19127082824707 8.06233024597168 L 23.17958450317383 1 L 4.164615631103516 1 M 3.5 0 L 24.5 0 L 22.15385055541992 8.333330154418945 C 22.15385055541992 9.253809928894043 21.32728958129883 10 20.30768966674805 10 L 1.846149444580078 10 C 0.8265495300292969 10 0 9.253809928894043 0 8.333330154418945 L 3.5 0 Z"/></g></g></svg>