<svg xmlns="http://www.w3.org/2000/svg" xmlns:xlink="http://www.w3.org/1999/xlink" width="30" height="30" viewBox="0 0 30 30">
  <defs>
    <clipPath id="clip-path">
      <rect width="16" height="16" fill="none"/>
    </clipPath>
  </defs>
  <g id="Group_361" data-name="Group 361" transform="translate(-685 -185)">
    <g id="Group_45" data-name="Group 45" transform="translate(685 185)">
      <g id="Rectangle_1104" data-name="Rectangle 1104" fill="#323132" stroke="#8a8a8a" stroke-width="1" opacity="0.5">
        <rect width="30" height="30" rx="5" stroke="none"/>
        <rect x="0.5" y="0.5" width="29" height="29" rx="4.5" fill="none"/>
      </g>
    </g>
    <g id="Symbol_209_25" data-name="Symbol 209 – 25" transform="translate(692 192)" clip-path="url(#clip-path)">
      <rect id="Rectangle_693" data-name="Rectangle 693" width="16" height="16" fill="none"/>
      <path id="Path_208" data-name="Path 208" d="M15.9,14.5l-3.3-3.3A6.847,6.847,0,0,0,14,7,6.957,6.957,0,0,0,7,0,6.957,6.957,0,0,0,0,7a6.957,6.957,0,0,0,7,7,6.847,6.847,0,0,0,4.2-1.4l3.3,3.3ZM2,7A4.951,4.951,0,0,1,7,2a4.951,4.951,0,0,1,5,5,4.951,4.951,0,0,1-5,5A4.951,4.951,0,0,1,2,7Z" fill="#f2f3f4"/>
    </g>
  </g>
</svg>
