<?xml version="1.0" encoding="iso-8859-1"?>
<!-- Generator: Adobe Illustrator 19.0.0, SVG Export Plug-In . SVG Version: 6.00 Build 0)  -->
<svg version="1.1" id="Layer_1" xmlns="http://www.w3.org/2000/svg" xmlns:xlink="http://www.w3.org/1999/xlink" x="0px" y="0px"
	 viewBox="0 0 202.622 202.622" style="enable-background:new 0 0 202.622 202.622;" xml:space="preserve">
<g>
	<g>
		<path d="M198.724,66.241h-62.345V3.897c0-2.152-1.743-3.897-3.897-3.897H3.897C1.743,0,0,1.745,0,3.897v128.586
			c0,2.152,1.743,3.897,3.897,3.897h62.345v62.345c0,2.152,1.743,3.897,3.897,3.897h128.586c2.154,0,3.897-1.745,3.897-3.897V70.138
			C202.621,67.986,200.878,66.241,198.724,66.241z M70.138,66.241c-2.154,0-3.897,1.745-3.897,3.897v58.448H7.793V7.793h120.793
			v58.448H70.138z M99.697,128.587H79.544l49.042-49.044v20.155L99.697,128.587z M128.586,110.717v17.869h-17.869L128.586,110.717z
			 M102.923,74.035h20.151l-49.04,49.042v-20.153L102.923,74.035z M74.034,91.904v-17.87h17.869L74.034,91.904z M74.034,194.828
			V136.38h58.448c2.154,0,3.897-1.745,3.897-3.897V74.034h58.448v120.794H74.034z" style="fill:#FFF"/>
	</g>
</g>
<g>
</g>
<g>
</g>
<g>
</g>
<g>
</g>
<g>
</g>
<g>
</g>
<g>
</g>
<g>
</g>
<g>
</g>
<g>
</g>
<g>
</g>
<g>
</g>
<g>
</g>
<g>
</g>
<g>
</g>
</svg>
