<svg xmlns="http://www.w3.org/2000/svg" xmlns:xlink="http://www.w3.org/1999/xlink" width="30" height="30" viewBox="0 0 30 30">
  <defs>
    <clipPath id="clip-path">
      <rect width="30" height="30" fill="none"/>
    </clipPath>
  </defs>
  <g id="Component" clip-path="url(#clip-path)">
    <g id="Rectangle_1256" data-name="Rectangle 1256" fill="#323132" stroke="#707070" stroke-width="1">
      <rect width="30" height="30" rx="5" stroke="none"/>
      <rect x="0.5" y="0.5" width="29" height="29" rx="4.5" fill="none"/>
    </g>
    <g id="Path_323" data-name="Path 323" transform="translate(7.437 8.062)" fill="#f2f3f4">
      <path d="M 7.798469066619873 14.25000095367432 C 6.601669311523438 14.25000095367432 4.012568950653076 13.27738094329834 1.202439188957214 11.77213096618652 C -1.181331276893616 10.49526500701904 -3.1620934009552 9.137881278991699 -4.116533756256104 8.147801399230957 C -3.533833980560303 8.060978889465332 -3.193050861358643 7.622580051422119 -3.193050861358643 6.938230991363525 C -3.193050861358643 6.292611122131348 -3.577420949935913 5.891541004180908 -4.196160793304443 5.891541004180908 C -4.227609157562256 5.891541004180908 -4.259081840515137 5.892528533935547 -4.290387153625488 5.894312858581543 C -3.514583349227905 4.966912746429443 -1.462416291236877 3.445913553237915 0.9539591670036316 2.026120901107788 C 3.868299245834351 0.3137509524822235 6.440909385681152 -0.7499990463256836 7.667839050292969 -0.7499990463256836 C 8.875119209289551 -0.7499990463256836 11.39291954040527 0.2903809547424316 14.08225917816162 1.900501012802124 C 16.32078170776367 3.240712881088257 18.25761795043945 4.725488185882568 19.18605804443359 5.789378643035889 C 18.68527221679688 5.89176082611084 18.39410972595215 6.305099487304688 18.39410972595215 6.938230991363525 C 18.39410972595215 7.716324806213379 18.86919021606445 8.012363433837891 19.33276176452637 8.033492088317871 C 18.48369979858398 8.907624244689941 16.49803161621094 10.31331157684326 14.2745189666748 11.59347057342529 C 11.42841911315918 13.23208141326904 8.946939468383789 14.25000095367432 7.798469066619873 14.25000095367432 Z" stroke="none"/>
      <path d="M 7.667839050292969 -0.2499990463256836 C 6.542129516601562 -0.2499990463256836 4.006198883056641 0.8126506805419922 1.207259178161621 2.457221031188965 C -0.8410549163818359 3.660743713378906 -2.431802749633789 4.821889877319336 -3.330297470092773 5.633804321289062 C -2.93095588684082 5.896690368652344 -2.693050384521484 6.357716083526611 -2.693050384521484 6.938230991363525 C -2.693050384521484 7.519125938415527 -2.891506195068359 7.986128330230713 -3.238615036010742 8.287043571472168 C -2.207864761352539 9.173324584960938 -0.5063638687133789 10.28959941864014 1.438529014587402 11.33138084411621 C 4.13926887512207 12.77803134918213 6.69512939453125 13.75000095367432 7.798469066619873 13.75000095367432 C 8.848348617553711 13.75000095367432 11.29241943359375 12.73342132568359 14.02503967285156 11.1601505279541 C 15.97251510620117 10.0389232635498 17.51162528991699 8.961739540100098 18.41635513305664 8.198149681091309 C 18.10610961914062 7.93884801864624 17.89410018920898 7.524653434753418 17.89410018920898 6.938230991363525 C 17.89410018920898 6.463504791259766 18.04971504211426 5.986292362213135 18.3816032409668 5.663609027862549 C 17.39337539672852 4.697111129760742 15.72474479675293 3.46662425994873 13.82541942596436 2.329490661621094 C 11.24839973449707 0.78662109375 8.773859024047852 -0.2499990463256836 7.667839050292969 -0.2499990463256836 M 7.667839050292969 -1.249999046325684 C 10.56005859375 -1.249999046325684 18.45838928222656 3.583101272583008 19.98956871032715 6.022730827331543 C 20.14675521850586 6.268360137939453 20.11756896972656 6.330760478973389 19.99787330627441 6.330760478973389 C 19.87443923950195 6.330760478973389 19.65471649169922 6.264494895935059 19.443603515625 6.264494895935059 C 19.16109466552734 6.264494895935059 18.89410018920898 6.38316011428833 18.89410018920898 6.938230991363525 C 18.89410018920898 7.410540103912354 19.11769676208496 7.534720897674561 19.38689041137695 7.534720897674561 C 19.68495941162109 7.534720897674561 20.03898239135742 7.382686614990234 20.20798873901367 7.38267707824707 C 20.35615158081055 7.382668495178223 20.36200332641602 7.499534130096436 20.06304931640625 7.938230991363525 C 18.83986854553223 9.758681297302246 10.60360908508301 14.75000095367432 7.798469066619873 14.75000095367432 C 4.997718811035156 14.75000095367432 -3.374191284179688 10.25495147705078 -4.938220977783203 7.938230991363525 C -5.122447967529297 7.670002937316895 -5.083066940307617 7.604650974273682 -4.937961578369141 7.604650974273682 C -4.800069808959961 7.604650974273682 -4.56663703918457 7.663680076599121 -4.338968276977539 7.663680076599121 C -4.010028839111328 7.663680076599121 -3.693050384521484 7.540537357330322 -3.693050384521484 6.938230991363525 C -3.693050384521484 6.500197410583496 -3.921714782714844 6.391536235809326 -4.196157455444336 6.391536235809326 C -4.466091156005859 6.391536235809326 -4.780326843261719 6.496546268463135 -4.965251922607422 6.496546268463135 C -5.154953002929688 6.496546268463135 -5.208467483520508 6.386041164398193 -4.938220977783203 5.938230991363525 C -3.751680374145508 3.940670967102051 4.710248947143555 -1.249999046325684 7.667839050292969 -1.249999046325684 Z" stroke="none" fill="#f2f3f4"/>
    </g>
    <g id="Ellipse_254" data-name="Ellipse 254" transform="translate(9 9)" fill="#323132" stroke="#15b9f9" stroke-width="2">
      <circle cx="6" cy="6" r="6" stroke="none"/>
      <circle cx="6" cy="6" r="5" fill="none"/>
    </g>
    <circle id="Ellipse_255" data-name="Ellipse 255" cx="1.5" cy="1.5" r="1.5" transform="translate(15.5 10.5)" fill="#f2f3f4"/>
  </g>
</svg>
