<?xml version="1.0" encoding="iso-8859-1"?>
<!-- Generator: Adobe Illustrator 18.0.0, SVG Export Plug-In . SVG Version: 6.00 Build 0)  -->
<!DOCTYPE svg PUBLIC "-//W3C//DTD SVG 1.1//EN" "http://www.w3.org/Graphics/SVG/1.1/DTD/svg11.dtd">
<svg version="1.1" id="Capa_1" xmlns="http://www.w3.org/2000/svg" xmlns:xlink="http://www.w3.org/1999/xlink" x="0px" y="0px"
	 viewBox="0 0 60 60" style="enable-background:new 0 0 60 60; fill:#FFF" xml:space="preserve" transform="scale(1, -1)">
<path d="M57,13.993c0-0.016-0.006-0.03-0.007-0.046c-0.004-0.074-0.013-0.146-0.032-0.216c-0.009-0.03-0.024-0.057-0.035-0.087
	c-0.021-0.053-0.041-0.106-0.07-0.155c-0.018-0.03-0.041-0.056-0.063-0.085c-0.032-0.042-0.064-0.083-0.102-0.12
	c-0.027-0.026-0.058-0.048-0.088-0.071c-0.027-0.02-0.049-0.045-0.078-0.063c-0.016-0.01-0.035-0.014-0.052-0.023
	c-0.014-0.008-0.025-0.02-0.04-0.027l-27-13c-0.283-0.137-0.615-0.132-0.895,0.014l-25,13c-0.011,0.006-0.018,0.015-0.029,0.021
	c-0.011,0.006-0.024,0.009-0.036,0.016c-0.034,0.021-0.06,0.049-0.091,0.074c-0.029,0.023-0.06,0.044-0.087,0.07
	c-0.038,0.038-0.068,0.08-0.099,0.123c-0.02,0.028-0.044,0.053-0.061,0.083c-0.031,0.053-0.052,0.11-0.072,0.168
	c-0.009,0.025-0.022,0.047-0.029,0.073C3.013,13.824,3,13.911,3,14v32c0,0.379,0.214,0.725,0.553,0.895l26,13
	c0.015,0.007,0.031,0.004,0.046,0.011C29.728,59.962,29.862,60,30,60s0.273-0.038,0.401-0.095c0.015-0.007,0.032-0.004,0.046-0.011
	l26-13C56.786,46.725,57,46.379,57,46V14c0-0.001,0-0.002,0-0.004C57,13.995,57,13.994,57,13.993z M51,14c0.552,0,1,0.448,1,1
	c0,0.552-0.448,1-1,1s-1-0.448-1-1C50,14.448,50.448,14,51,14z M48,11c0.552,0,1,0.448,1,1c0,0.552-0.448,1-1,1s-1-0.448-1-1
	C47,11.448,47.448,11,48,11z M45,8c0.552,0,1,0.448,1,1c0,0.552-0.448,1-1,1s-1-0.448-1-1C44,8.448,44.448,8,45,8z M45,14
	c0.552,0,1,0.448,1,1c0,0.552-0.448,1-1,1s-1-0.448-1-1C44,14.448,44.448,14,45,14z M42,11c0.552,0,1,0.448,1,1c0,0.552-0.448,1-1,1
	s-1-0.448-1-1C41,11.448,41.448,11,42,11z M42,17c0.552,0,1,0.448,1,1c0,0.552-0.448,1-1,1s-1-0.448-1-1C41,17.448,41.448,17,42,17z
	 M39,8c0.552,0,1,0.448,1,1c0,0.552-0.448,1-1,1s-1-0.448-1-1C38,8.448,38.448,8,39,8z M39,14c0.552,0,1,0.448,1,1
	c0,0.552-0.448,1-1,1s-1-0.448-1-1C38,14.448,38.448,14,39,14z M39,20c0.552,0,1,0.448,1,1c0,0.552-0.448,1-1,1s-1-0.448-1-1
	C38,20.448,38.448,20,39,20z M36,5c0.552,0,1,0.448,1,1c0,0.552-0.448,1-1,1s-1-0.448-1-1C35,5.448,35.448,5,36,5z M36,11
	c0.552,0,1,0.448,1,1c0,0.552-0.448,1-1,1s-1-0.448-1-1C35,11.448,35.448,11,36,11z M36,17c0.552,0,1,0.448,1,1c0,0.552-0.448,1-1,1
	s-1-0.448-1-1C35,17.448,35.448,17,36,17z M33,2c0.552,0,1,0.448,1,1c0,0.552-0.448,1-1,1s-1-0.448-1-1C32,2.448,32.448,2,33,2z
	 M33,8c0.552,0,1,0.448,1,1c0,0.552-0.448,1-1,1s-1-0.448-1-1C32,8.448,32.448,8,33,8z M33,14c0.552,0,1,0.448,1,1
	c0,0.552-0.448,1-1,1s-1-0.448-1-1C32,14.448,32.448,14,33,14z M33,20c0.552,0,1,0.448,1,1c0,0.552-0.448,1-1,1s-1-0.448-1-1
	C32,20.448,32.448,20,33,20z M30,5c0.552,0,1,0.448,1,1c0,0.552-0.448,1-1,1s-1-0.448-1-1C29,5.448,29.448,5,30,5z M30,11
	c0.552,0,1,0.448,1,1c0,0.552-0.448,1-1,1s-1-0.448-1-1C29,11.448,29.448,11,30,11z M30,17c0.552,0,1,0.448,1,1c0,0.552-0.448,1-1,1
	s-1-0.448-1-1C29,17.448,29.448,17,30,17z M27,2c0.552,0,1,0.448,1,1c0,0.552-0.448,1-1,1s-1-0.448-1-1C26,2.448,26.448,2,27,2z
	 M27,8c0.552,0,1,0.448,1,1c0,0.552-0.448,1-1,1s-1-0.448-1-1C26,8.448,26.448,8,27,8z M27,14c0.552,0,1,0.448,1,1
	c0,0.552-0.448,1-1,1s-1-0.448-1-1C26,14.448,26.448,14,27,14z M27,20c0.552,0,1,0.448,1,1c0,0.552-0.448,1-1,1s-1-0.448-1-1
	C26,20.448,26.448,20,27,20z M24,5c0.552,0,1,0.448,1,1c0,0.552-0.448,1-1,1s-1-0.448-1-1C23,5.448,23.448,5,24,5z M24,11
	c0.552,0,1,0.448,1,1c0,0.552-0.448,1-1,1s-1-0.448-1-1C23,11.448,23.448,11,24,11z M24,17c0.552,0,1,0.448,1,1c0,0.552-0.448,1-1,1
	s-1-0.448-1-1C23,17.448,23.448,17,24,17z M21,8c0.552,0,1,0.448,1,1c0,0.552-0.448,1-1,1s-1-0.448-1-1C20,8.448,20.448,8,21,8z
	 M21,14c0.552,0,1,0.448,1,1c0,0.552-0.448,1-1,1s-1-0.448-1-1C20,14.448,20.448,14,21,14z M21,20c0.552,0,1,0.448,1,1
	c0,0.552-0.448,1-1,1s-1-0.448-1-1C20,20.448,20.448,20,21,20z M18,11c0.552,0,1,0.448,1,1c0,0.552-0.448,1-1,1s-1-0.448-1-1
	C17,11.448,17.448,11,18,11z M18,17c0.552,0,1,0.448,1,1c0,0.552-0.448,1-1,1s-1-0.448-1-1C17,17.448,17.448,17,18,17z M15,8
	c0.552,0,1,0.448,1,1c0,0.552-0.448,1-1,1s-1-0.448-1-1C14,8.448,14.448,8,15,8z M15,14c0.552,0,1,0.448,1,1c0,0.552-0.448,1-1,1
	s-1-0.448-1-1C14,14.448,14.448,14,15,14z M12,11c0.552,0,1,0.448,1,1c0,0.552-0.448,1-1,1s-1-0.448-1-1C11,11.448,11.448,11,12,11z
	 M9,14c0.552,0,1,0.448,1,1c0,0.552-0.448,1-1,1s-1-0.448-1-1C8,14.448,8.448,14,9,14z M29,57.382l-24-12V15.618l24,12V57.382z
	 M30,25c-0.552,0-1-0.448-1-1c0-0.552,0.448-1,1-1s1,0.448,1,1C31,24.552,30.552,25,30,25z M55,45.382l-24,12V27.618l24-12V45.382z"
	/>
<g>
</g>
<g>
</g>
<g>
</g>
<g>
</g>
<g>
</g>
<g>
</g>
<g>
</g>
<g>
</g>
<g>
</g>
<g>
</g>
<g>
</g>
<g>
</g>
<g>
</g>
<g>
</g>
<g>
</g>
</svg>
