<svg xmlns="http://www.w3.org/2000/svg" xmlns:xlink="http://www.w3.org/1999/xlink" viewBox="0 0 1920 1080"><defs><style>.a,.aa,.f,.g{fill:#323132;}.b{fill:url(#a);}.c{fill:#f2f3f4;}.d,.y{fill:#696969;}.d,.e,.f,.g{stroke:#323132;}.d,.e,.f,.g,.i,.j,.k,.l,.m,.n,.o,.p,.q,.r,.s,.t,.u,.v,.w,.x{stroke-miterlimit:10;}.d,.e,.f,.i,.j,.k,.l,.m,.o,.p,.q,.r,.s,.t,.u,.v,.w,.x{opacity:0.15;}.aa,.d,.e,.f,.g,.i,.j,.k,.l,.m,.n,.o,.p,.q,.r,.s,.t,.u,.v,.w,.x,.y,.z{isolation:isolate;}.e,.z{fill:#474747;}.g{opacity:0.25;}.h{opacity:0.8;}.i{fill:url(#b);stroke:url(#c);}.j{fill:url(#d);stroke:url(#e);}.k{fill:url(#f);stroke:url(#g);}.l{fill:url(#h);stroke:url(#i);}.m{fill:url(#j);stroke:url(#k);}.n{opacity:0.1;fill:url(#l);stroke:url(#m);}.o{fill:url(#n);stroke:url(#o);}.p{fill:url(#p);stroke:url(#q);}.q{fill:url(#r);stroke:url(#s);}.r{fill:url(#t);stroke:url(#u);}.s{fill:url(#v);stroke:url(#w);}.t{fill:url(#x);stroke:url(#y);}.u{fill:url(#z);stroke:url(#aa);}.v{fill:url(#ab);stroke:url(#ac);}.w{fill:url(#ad);stroke:url(#ae);}.x{fill:url(#af);stroke:url(#ag);}.aa,.y,.z{opacity:0.05;}</style><linearGradient id="a" x1="1.71857" y1="1081.29099" x2="1.71857" y2="1080.38488" gradientTransform="matrix(0, -1087.302, -1480.02197, 0, 1600672.25244, 2409.604)" gradientUnits="userSpaceOnUse"><stop offset="0" stop-color="#f2f3f4"/><stop offset="0.33" stop-color="#f05a28"/><stop offset="0.66" stop-color="#ee2e25"/><stop offset="1" stop-color="#323132"/></linearGradient><linearGradient id="b" x1="0.1655" y1="1079.86498" x2="0.1655" y2="1080.86498" gradientTransform="matrix(0, 2000, 1570.15503, 0, -1695201.93164, 1372.5)" xlink:href="#a"/><linearGradient id="c" x1="353" y1="1703.4836" x2="1924.15503" y2="1703.4836" gradientUnits="userSpaceOnUse"><stop offset="0" stop-color="#f2f3f4"/><stop offset="0.33" stop-color="#f2f3f4"/><stop offset="0.66" stop-color="#f2f3f4"/><stop offset="1" stop-color="#323132"/></linearGradient><linearGradient id="d" x1="0.1655" y1="1079.86498" x2="0.1655" y2="1080.86498" gradientTransform="matrix(0, 2000, 1570.15503, 0, -1695201.93164, 1232.5)" xlink:href="#a"/><linearGradient id="e" y1="1563.4836" x2="1924.15503" y2="1563.4836" xlink:href="#c"/><linearGradient id="f" x1="0.1655" y1="1079.86498" x2="0.1655" y2="1080.86498" gradientTransform="matrix(0, 2000, 1570.15503, 0, -1695201.93164, 1092.5)" xlink:href="#a"/><linearGradient id="g" y1="1423.4836" x2="1924.15503" y2="1423.4836" xlink:href="#c"/><linearGradient id="h" x1="0.1655" y1="1079.86498" x2="0.1655" y2="1080.86498" gradientTransform="matrix(0, 2000, 1570.15503, 0, -1695201.93164, 952.5)" xlink:href="#a"/><linearGradient id="i" y1="1283.4836" x2="1924.15503" y2="1283.4836" xlink:href="#c"/><linearGradient id="j" x1="0.1655" y1="1079.86498" x2="0.1655" y2="1080.86498" gradientTransform="matrix(0, 2000, 1570.15503, 0, -1695201.93164, 812.5)" xlink:href="#a"/><linearGradient id="k" y1="1143.4836" x2="1924.15503" y2="1143.4836" xlink:href="#c"/><linearGradient id="l" x1="0.1655" y1="1079.86498" x2="0.1655" y2="1080.86498" gradientTransform="matrix(0, 2000, 1570.15503, 0, -1695201.93164, 672.5)" xlink:href="#a"/><linearGradient id="m" y1="1003.4836" x2="1924.15503" y2="1003.4836" xlink:href="#c"/><linearGradient id="n" x1="0.1655" y1="1079.86498" x2="0.1655" y2="1080.86498" gradientTransform="matrix(0, 2000, 1570.15503, 0, -1695201.93164, 1662.5)" xlink:href="#a"/><linearGradient id="o" y1="1993.4836" x2="1924.15503" y2="1993.4836" xlink:href="#c"/><linearGradient id="p" x1="0.1655" y1="1079.86498" x2="0.1655" y2="1080.86498" gradientTransform="matrix(0, 2000, 1570.15503, 0, -1695201.93164, 1522.5)" xlink:href="#a"/><linearGradient id="q" y1="1853.4836" x2="1924.15503" y2="1853.4836" xlink:href="#c"/><linearGradient id="r" x1="2.845" y1="1081.13502" x2="2.845" y2="1080.13502" gradientTransform="matrix(0, -2000, -1570.15991, 0, 1697908.366, 5772.5)" xlink:href="#a"/><linearGradient id="s" x1="353.00101" y1="82.5164" x2="1924.16092" y2="82.5164" xlink:href="#c"/><linearGradient id="t" x1="2.845" y1="1081.13502" x2="2.845" y2="1080.13502" gradientTransform="matrix(0, -2000, -1570.15894, 0, 1697907.31033, 5632.5)" xlink:href="#a"/><linearGradient id="u" x1="353.00101" y1="-57.4836" x2="1924.15994" y2="-57.4836" xlink:href="#c"/><linearGradient id="v" x1="2.845" y1="1081.13502" x2="2.845" y2="1080.13502" gradientTransform="matrix(0, -2000, -1570.15894, 0, 1697907.31033, 5492.5)" xlink:href="#a"/><linearGradient id="w" x1="353.00101" y1="-197.4836" x2="1924.15994" y2="-197.4836" xlink:href="#c"/><linearGradient id="x" x1="2.845" y1="1081.13502" x2="2.845" y2="1080.13502" gradientTransform="matrix(0, -2000, -1570.15894, 0, 1697907.31033, 5352.5)" xlink:href="#a"/><linearGradient id="y" x1="353.00101" y1="-337.4836" x2="1924.15994" y2="-337.4836" xlink:href="#c"/><linearGradient id="z" x1="2.845" y1="1081.13502" x2="2.845" y2="1080.13502" gradientTransform="matrix(0, -2000, -1570.15894, 0, 1697907.31033, 5212.5)" xlink:href="#a"/><linearGradient id="aa" x1="353.00101" y1="-477.4836" x2="1924.15994" y2="-477.4836" xlink:href="#c"/><linearGradient id="ab" x1="2.845" y1="1081.13502" x2="2.845" y2="1080.13502" gradientTransform="matrix(0, -2000, -1570.15894, 0, 1697907.31033, 5072.5)" xlink:href="#a"/><linearGradient id="ac" x1="353.00101" y1="-617.4836" x2="1924.15994" y2="-617.4836" xlink:href="#c"/><linearGradient id="ad" x1="2.845" y1="1081.13502" x2="2.845" y2="1080.13502" gradientTransform="matrix(0, -2000, -1570.15991, 0, 1697908.366, 4935.5)" xlink:href="#a"/><linearGradient id="ae" x1="353.00101" y1="-754.4836" x2="1924.16092" y2="-754.4836" xlink:href="#c"/><linearGradient id="af" x1="2.845" y1="1081.13502" x2="2.845" y2="1080.13502" gradientTransform="matrix(0, -2000, -1570.15894, 0, 1697907.31033, 4795.5)" xlink:href="#a"/><linearGradient id="ag" x1="353.00101" y1="-894.4836" x2="1924.15994" y2="-894.4836" xlink:href="#c"/></defs><title>Artboard 1</title><rect class="a" x="1671" y="1" width="250" height="1087.802"/><rect class="b" x="204.5" y="1" width="1480.02197" height="1080"/><rect class="c" x="1" y="1.5" width="221" height="1081.5"/><path class="d" d="M351.5,501.67592l301.64753,535.585,24.21148,42.98877H1928.5v-1080H606.26583Z"/><path class="d" d="M496.125,500.92627l301.64753,535.585L821.984,1079.5H2073.125V-.5H750.89083Z"/><path class="e" d="M638.125,501.67627l301.64753,535.585L963.984,1080.25H2215.125V.25H892.89083Z"/><path class="e" d="M783.125,503.92627l301.64753,535.585L1108.984,1082.5H2360.125V2.5H1037.89083Z"/><path class="e" d="M927.125,501.67627l301.64753,535.585L1252.984,1080.25H2504.125V.25H1181.89083Z"/><path class="f" d="M1068.125,503.92627l301.64753,535.585L1393.984,1082.5H2645.125V2.5H1322.89083Z"/><path class="f" d="M1213.125,501.67627l301.64753,535.585L1538.984,1080.25H2790.125V.25H1467.89083Z"/><path class="g" d="M1360.125,497.92627l301.64753,535.585L1685.984,1076.5H2937.125V-3.5H1614.89083Z"/><path class="g" d="M1503.125,504.67627l301.64753,535.585L1828.984,1083.25H3080.125V3.25H1757.89083Z"/><path class="g" d="M1648.125,500.92627l301.64753,535.585L1973.984,1079.5H3225.125V-.5H1902.89083Z"/><path class="g" d="M1777.125,501.67627l301.64753,535.585L2102.984,1080.25H3354.125V.25H2031.89083Z"/><g class="h"><path class="i" d="M1082.496,703.5l841.159,326.014V2703.5H353.5V958.387Z"/><path class="j" d="M1082.496,563.5l841.159,326.014V2563.5H353.5V818.387Z"/><path class="k" d="M1082.496,423.5l841.159,326.014V2423.5H353.5V678.387Z"/><path class="l" d="M1082.496,283.5l841.159,326.014V2283.5H353.5V538.387Z"/><path class="m" d="M1082.496,143.5l841.159,326.014V2143.5H353.5V398.387Z"/><path class="n" d="M1082.496,3.5l778.659,301.791,62.5,24.223V2003.5H353.5V258.387Z"/><path class="o" d="M1082.496,993.5l841.159,326.014V2993.5H353.5V1248.387Z"/><path class="p" d="M1082.496,853.5l778.659,301.791,62.5,24.223V2853.5H353.5V1108.387Z"/></g><g class="h"><path class="q" d="M1082.501,1082.5l778.65991-301.791,62.5-24.223V-917.5H353.501V827.613Z"/><path class="r" d="M1082.501,942.5l841.15893-326.014V-1057.5H353.501V687.613Z"/><path class="s" d="M1082.501,802.5l841.15893-326.014V-1197.5H353.501V547.613Z"/><path class="t" d="M1082.501,662.5l841.15893-326.014V-1337.5H353.501V407.613Z"/><path class="u" d="M1082.501,522.5l841.15893-326.014V-1477.5H353.501V267.613Z"/><path class="v" d="M1082.501,382.5,1923.65994,56.486V-1617.5H353.501V127.613Z"/><path class="w" d="M1082.501,245.5,1861.16092-56.291l62.5-24.223V-1754.5H353.501V-9.387Z"/><path class="x" d="M1082.501,105.5l841.15893-326.014V-1894.5H353.501V-149.387Z"/></g><path class="y" d="M605.5-.32408l301.64753,535.585L931.359,578.24965H2182.5v-1080H860.26583Z"/><path class="y" d="M750.125-1.07373l301.64753,535.585L1075.984,577.5H2327.125v-1080H1004.89083Z"/><path class="z" d="M892.125-.32373l301.64753,535.585L1217.984,578.25H2469.125v-1080H1146.89083Z"/><path class="z" d="M1037.125,1.92627l301.64753,535.585L1362.984,580.5H2614.125v-1080H1291.89083Z"/><path class="z" d="M1181.125-.32373l301.64753,535.585L1506.984,578.25H2758.125v-1080H1435.89083Z"/><path class="aa" d="M1322.125,1.92627l301.64753,535.585L1647.984,580.5H2899.125v-1080H1576.89083Z"/><path class="aa" d="M1467.125-.32373l301.64753,535.585L1792.984,578.25H3044.125v-1080H1721.89083Z"/><path class="aa" d="M1614.125-4.07373l301.64753,535.585L1939.984,574.5H3191.125v-1080H1868.89083Z"/><path class="aa" d="M1757.125,2.67627l301.64753,535.585L2082.984,581.25H3334.125v-1080H2011.89083Z"/><path class="aa" d="M1902.125-1.07373l301.64753,535.585L2227.984,577.5H3479.125v-1080H2156.89083Z"/><path class="y" d="M675.5,1079.67592l301.64753,535.585,24.21148,42.98877H2252.5v-1080H930.26583Z"/><path class="y" d="M820.125,1078.92627l301.64753,535.585L1145.984,1657.5H2397.125V577.5H1074.89083Z"/><path class="z" d="M962.125,1079.67627l301.64753,535.585L1287.984,1658.25H2539.125v-1080H1216.89083Z"/><path class="z" d="M1107.125,1081.92627l301.64753,535.585L1432.984,1660.5H2684.125V580.5H1361.89083Z"/><path class="z" d="M1251.125,1079.67627l301.64753,535.585L1576.984,1658.25H2828.125v-1080H1505.89083Z"/><path class="aa" d="M1392.125,1081.92627l301.64753,535.585L1717.984,1660.5H2969.125V580.5H1646.89083Z"/><path class="aa" d="M1537.125,1079.67627l301.64753,535.585L1862.984,1658.25H3114.125v-1080H1791.89083Z"/><path class="aa" d="M1684.125,1075.92627l301.64753,535.585L2009.984,1654.5H3261.125V574.5H1938.89083Z"/><path class="aa" d="M1827.125,1082.67627l301.64753,535.585L2152.984,1661.25H3404.125v-1080H2081.89083Z"/></svg>