<svg xmlns="http://www.w3.org/2000/svg" xmlns:xlink="http://www.w3.org/1999/xlink" viewBox="0 0 1920 1080"><defs><style>.a,.aa,.f,.g{fill:#323132;}.b{fill:url(#a);}.c{fill:#f2f3f4;}.d,.y{fill:#696969;}.d,.e,.f,.g{stroke:#323132;}.d,.e,.f,.g,.i,.j,.k,.l,.m,.n,.o,.p,.q,.r,.s,.t,.u,.v,.w,.x{stroke-miterlimit:10;}.d,.e,.f,.i,.j,.k,.l,.m,.o,.p,.q,.r,.s,.t,.u,.v,.w,.x{opacity:0.15;}.aa,.d,.e,.f,.g,.i,.j,.k,.l,.m,.n,.o,.p,.q,.r,.s,.t,.u,.v,.w,.x,.y,.z{isolation:isolate;}.e,.z{fill:#474747;}.g{opacity:0.25;}.h{opacity:0.8;}.i{fill:url(#b);stroke:url(#c);}.j{fill:url(#d);stroke:url(#e);}.k{fill:url(#f);stroke:url(#g);}.l{fill:url(#h);stroke:url(#i);}.m{fill:url(#j);stroke:url(#k);}.n{opacity:0.1;fill:url(#l);stroke:url(#m);}.o{fill:url(#n);stroke:url(#o);}.p{fill:url(#p);stroke:url(#q);}.q{fill:url(#r);stroke:url(#s);}.r{fill:url(#t);stroke:url(#u);}.s{fill:url(#v);stroke:url(#w);}.t{fill:url(#x);stroke:url(#y);}.u{fill:url(#z);stroke:url(#aa);}.v{fill:url(#ab);stroke:url(#ac);}.w{fill:url(#ad);stroke:url(#ae);}.x{fill:url(#af);stroke:url(#ag);}.aa,.ac,.y,.z{opacity:0.05;}.ab{fill:url(#ah);}.ad{fill:url(#ai);}.ae{fill:url(#aj);}.af{fill:url(#ak);}</style><linearGradient id="a" x1="1.72" y1="1081.29" x2="1.72" y2="1080.38" gradientTransform="matrix(0, -1087.3, -1480.02, 0, 1600672.25, 2409.6)" gradientUnits="userSpaceOnUse"><stop offset="0" stop-color="#f2f3f4"/><stop offset="0.33" stop-color="#f05a28"/><stop offset="0.66" stop-color="#ee2e25"/><stop offset="1" stop-color="#323132"/></linearGradient><linearGradient id="b" x1="0.17" y1="1079.86" x2="0.17" y2="1080.86" gradientTransform="matrix(0, 2000, 1570.16, 0, -1695201.93, 1372.5)" xlink:href="#a"/><linearGradient id="c" x1="353" y1="1703.48" x2="1924" y2="1703.48" gradientUnits="userSpaceOnUse"><stop offset="0" stop-color="#f2f3f4"/><stop offset="0.33" stop-color="#f2f3f4"/><stop offset="0.66" stop-color="#f2f3f4"/><stop offset="1" stop-color="#323132"/></linearGradient><linearGradient id="d" x1="0.17" y1="1079.86" x2="0.17" y2="1080.86" gradientTransform="matrix(0, 2000, 1570.16, 0, -1695201.93, 1232.5)" xlink:href="#a"/><linearGradient id="e" y1="1563.48" y2="1563.48" xlink:href="#c"/><linearGradient id="f" x1="0.17" y1="1079.86" x2="0.17" y2="1080.86" gradientTransform="matrix(0, 2000, 1570.16, 0, -1695201.93, 1092.5)" xlink:href="#a"/><linearGradient id="g" y1="1423.48" y2="1423.48" xlink:href="#c"/><linearGradient id="h" x1="0.17" y1="1079.86" x2="0.17" y2="1080.86" gradientTransform="matrix(0, 2000, 1570.16, 0, -1695201.93, 952.5)" xlink:href="#a"/><linearGradient id="i" y1="1283.48" y2="1283.48" xlink:href="#c"/><linearGradient id="j" x1="0.17" y1="1079.86" x2="0.17" y2="1080.86" gradientTransform="matrix(0, 2000, 1570.16, 0, -1695201.93, 812.5)" xlink:href="#a"/><linearGradient id="k" y1="1143.48" y2="1143.48" xlink:href="#c"/><linearGradient id="l" x1="0.17" y1="1079.86" x2="0.17" y2="1080.86" gradientTransform="matrix(0, 2000, 1570.16, 0, -1695201.93, 672.5)" xlink:href="#a"/><linearGradient id="m" y1="1003.48" y2="1003.48" xlink:href="#c"/><linearGradient id="n" x1="0.17" y1="1079.86" x2="0.17" y2="1080.86" gradientTransform="matrix(0, 2000, 1570.16, 0, -1695201.93, 1662.5)" xlink:href="#a"/><linearGradient id="o" y1="1993.48" y2="1993.48" xlink:href="#c"/><linearGradient id="p" x1="0.17" y1="1079.86" x2="0.17" y2="1080.86" gradientTransform="matrix(0, 2000, 1570.16, 0, -1695201.93, 1522.5)" xlink:href="#a"/><linearGradient id="q" y1="1853.48" y2="1853.48" xlink:href="#c"/><linearGradient id="r" x1="2.84" y1="1081.14" x2="2.84" y2="1080.14" gradientTransform="matrix(0, -2000, -1570.16, 0, 1697908.37, 5772.5)" xlink:href="#a"/><linearGradient id="s" y1="82.52" y2="82.52" xlink:href="#c"/><linearGradient id="t" x1="2.84" y1="1081.14" x2="2.84" y2="1080.14" gradientTransform="matrix(0, -2000, -1570.16, 0, 1697907.31, 5632.5)" xlink:href="#a"/><linearGradient id="u" y1="-57.48" y2="-57.48" xlink:href="#c"/><linearGradient id="v" x1="2.84" y1="1081.14" x2="2.84" y2="1080.14" gradientTransform="matrix(0, -2000, -1570.16, 0, 1697907.31, 5492.5)" xlink:href="#a"/><linearGradient id="w" y1="-197.48" y2="-197.48" xlink:href="#c"/><linearGradient id="x" x1="2.84" y1="1081.14" x2="2.84" y2="1080.14" gradientTransform="matrix(0, -2000, -1570.16, 0, 1697907.31, 5352.5)" xlink:href="#a"/><linearGradient id="y" y1="-337.48" y2="-337.48" xlink:href="#c"/><linearGradient id="z" x1="2.84" y1="1081.14" x2="2.84" y2="1080.14" gradientTransform="matrix(0, -2000, -1570.16, 0, 1697907.31, 5212.5)" xlink:href="#a"/><linearGradient id="aa" y1="-477.48" y2="-477.48" xlink:href="#c"/><linearGradient id="ab" x1="2.84" y1="1081.14" x2="2.84" y2="1080.14" gradientTransform="matrix(0, -2000, -1570.16, 0, 1697907.31, 5072.5)" xlink:href="#a"/><linearGradient id="ac" y1="-617.48" y2="-617.48" xlink:href="#c"/><linearGradient id="ad" x1="2.84" y1="1081.14" x2="2.84" y2="1080.14" gradientTransform="matrix(0, -2000, -1570.16, 0, 1697908.37, 4935.5)" xlink:href="#a"/><linearGradient id="ae" y1="-754.48" y2="-754.48" xlink:href="#c"/><linearGradient id="af" x1="2.84" y1="1081.14" x2="2.84" y2="1080.14" gradientTransform="matrix(0, -2000, -1570.16, 0, 1697907.31, 4795.5)" xlink:href="#a"/><linearGradient id="ag" y1="-894.48" y2="-894.48" xlink:href="#c"/><linearGradient id="ah" x1="1" y1="540.5" x2="1928" y2="540.5" gradientUnits="userSpaceOnUse"><stop offset="0" stop-color="#323132" stop-opacity="0.95"/><stop offset="0.33" stop-color="#323132" stop-opacity="0.8"/><stop offset="0.66" stop-color="#323132" stop-opacity="0.6"/><stop offset="1" stop-color="#323132" stop-opacity="0.4"/></linearGradient><linearGradient id="ai" x1="5.18" y1="1075.44" x2="1.61" y2="1081.49" gradientTransform="matrix(156.74, 0, 0, -154.98, 414.26, 167778.33)" gradientUnits="userSpaceOnUse"><stop offset="0" stop-color="#eb2227"/><stop offset="0.27" stop-color="#ec2e28"/><stop offset="0.69" stop-color="#ee4728"/><stop offset="1" stop-color="#f15b2a"/></linearGradient><linearGradient id="aj" x1="4.81" y1="1077.02" x2="1.23" y2="1083.05" gradientTransform="matrix(156.89, 0, 0, -155.93, 612.93, 168962.51)" xlink:href="#ai"/><linearGradient id="ak" x1="3.04" y1="1078.39" x2="1.47" y2="1081.38" gradientTransform="matrix(355.51, 0, 0, -314.7, 215.57, 340428.48)" xlink:href="#ai"/></defs><title>MainPageBckgndField</title><rect class="a" x="1671" y="1" width="250" height="1087.8"/><rect class="b" x="204.5" y="1" width="1480.02" height="1080"/><rect class="c" x="1" y="1.5" width="221" height="1081.5"/><path class="d" d="M351.5,501.93l301.65,535.58,24.21,43H1928.5V.5H606.27Z"/><path class="d" d="M496.5,500.93l301.65,535.58,24.21,43H2073.5V-.5H751.27Z"/><path class="e" d="M638.5,501.93l301.65,535.58,24.21,43H2215.5V.5H893.27Z"/><path class="e" d="M783.5,503.93l301.65,535.58,24.21,43H2360.5V2.5H1038.27Z"/><path class="e" d="M927.5,501.93l301.65,535.58,24.21,43H2504.5V.5H1182.27Z"/><path class="f" d="M1068.5,503.93l301.65,535.58,24.21,43H2645.5V2.5H1323.27Z"/><path class="f" d="M1213.5,501.93l301.65,535.58,24.21,43H2790.5V.5H1468.27Z"/><path class="g" d="M1360.5,497.93l301.65,535.58,24.21,43H2937.5V-3.5H1615.27Z"/><path class="g" d="M1503.5,504.93l301.65,535.58,24.21,43H3080.5V3.5H1758.27Z"/><path class="g" d="M1648.5,500.93l301.65,535.58,24.21,43H3225.5V-.5H1903.27Z"/><path class="g" d="M1777.5,501.93l301.65,535.58,24.21,43H3354.5V.5H2032.27Z"/><g class="h"><path class="i" d="M1082.42,703.5l841.08,326v1674H353.5V958.39Z"/><path class="j" d="M1082.42,563.5l841.08,326v1674H353.5V818.39Z"/><path class="k" d="M1082.42,423.5l841.08,326v1674H353.5V678.39Z"/><path class="l" d="M1082.42,283.5l841.08,326v1674H353.5V538.39Z"/><path class="m" d="M1082.42,143.5l841.08,326v1674H353.5V398.39Z"/><path class="n" d="M1082.42,3.5,1861,305.29l62.49,24.22v1674H353.5V258.39Z"/><path class="o" d="M1082.42,993.5l841.08,326v1674H353.5V1248.39Z"/><path class="p" d="M1082.42,853.5,1861,1155.29l62.49,24.22v1674H353.5V1108.39Z"/></g><g class="h"><path class="q" d="M1082.43,1082.5,1861,780.71l62.49-24.22v-1674H353.5V827.61Z"/><path class="r" d="M1082.43,942.5l841.07-326v-1674H353.5V687.61Z"/><path class="s" d="M1082.43,802.5l841.07-326v-1674H353.5V547.61Z"/><path class="t" d="M1082.43,662.5l841.07-326v-1674H353.5V407.61Z"/><path class="u" d="M1082.43,522.5l841.07-326v-1674H353.5V267.61Z"/><path class="v" d="M1082.43,382.5l841.07-326v-1674H353.5V127.61Z"/><path class="w" d="M1082.43,245.5,1861-56.29l62.49-24.22v-1674H353.5V-9.39Z"/><path class="x" d="M1082.43,105.5l841.07-326v-1674H353.5V-149.39Z"/></g><path class="y" d="M605.5-.32,907.15,535.26l24.21,43H2182.5v-1080H860.27Z"/><path class="y" d="M750.13-1.07l301.64,535.58,24.21,43H2327.13v-1080H1004.89Z"/><path class="z" d="M892.13-.32l301.64,535.58,24.21,43H2469.13v-1080H1146.89Z"/><path class="z" d="M1037.13,1.93l301.64,535.58,24.21,43H2614.13v-1080H1291.89Z"/><path class="z" d="M1181.13-.32l301.64,535.58,24.21,43H2758.13v-1080H1435.89Z"/><path class="aa" d="M1322.13,1.93l301.64,535.58,24.21,43H2899.13v-1080H1576.89Z"/><path class="aa" d="M1467.13-.32l301.64,535.58,24.21,43H3044.13v-1080H1721.89Z"/><path class="aa" d="M1614.13-4.07l301.64,535.58,24.21,43H3191.13v-1080H1868.89Z"/><path class="aa" d="M1757.13,2.68l301.64,535.58,24.21,43H3334.13v-1080H2011.89Z"/><path class="aa" d="M1902.13-1.07l301.64,535.58,24.21,43H3479.13v-1080H2156.89Z"/><path class="y" d="M675.5,1079.68l301.65,535.58,24.21,43H2252.5v-1080H930.27Z"/><path class="y" d="M820.13,1078.93l301.64,535.58,24.21,43H2397.13V577.5H1074.89Z"/><path class="z" d="M962.13,1079.68l301.64,535.58,24.21,43H2539.13v-1080H1216.89Z"/><path class="z" d="M1107.13,1081.93l301.64,535.58,24.21,43H2684.13V580.5H1361.89Z"/><path class="z" d="M1251.13,1079.68l301.64,535.58,24.21,43H2828.13v-1080H1505.89Z"/><path class="aa" d="M1392.13,1081.93l301.64,535.58,24.21,43H2969.13V580.5H1646.89Z"/><path class="aa" d="M1537.13,1079.68l301.64,535.58,24.21,43H3114.13v-1080H1791.89Z"/><path class="aa" d="M1684.13,1075.93l301.64,535.58,24.21,43H3261.13V574.5H1938.89Z"/><path class="aa" d="M1827.13,1082.68l301.64,535.58,24.21,43H3404.13v-1080H2081.89Z"/><rect class="ab" x="1" y="1" width="1927" height="1079"/><g class="ac"><path class="ad" d="M850.21,496.45a80.48,80.48,0,0,1-140,0L485.3,99H723.53a100.63,100.63,0,0,1,87.55,51.09l117.38,208.1ZM618.55,176.67,777.93,458.23a2.83,2.83,0,0,0,4.81,0l56.7-100.09L743.62,188.35a23.09,23.09,0,0,0-20-11.67H618.55Z"/><path class="ae" d="M1491.06,988.85s-170.16.15-241.7.15a97.31,97.31,0,0,1-85-51.09L1047.46,724.79,1122.9,589.4a80.41,80.41,0,0,1,140.12-.66ZM1136.12,725.16l96.19,175.55a19.89,19.89,0,0,0,17.2,10.55l107.93-.15L1195.62,627.2a2.94,2.94,0,0,0-4.08-.75,3.08,3.08,0,0,0-.79.82Z"/><path class="af" d="M1357.74,176.67l-72,127.71h61.42a47.25,47.25,0,0,0,41.28-24.14L1490.7,99H1314.33a205.42,205.42,0,0,0-178.65,104.31L772.9,846.23a127.74,127.74,0,0,1-111.1,64.89H618.41l72.05-127.57H629a47.3,47.3,0,0,0-41.28,24.14L485.53,988.78H661.89A205.54,205.54,0,0,0,840.61,884.47l362.76-642.92a127.6,127.6,0,0,1,111-64.81h43.33Z"/></g></svg>